<svg xmlns="http://www.w3.org/2000/svg" x="0px" y="0px" width="250" height="250" viewBox="0 0 50 50">
<path fill="#99c93c" d="M32.892,2.969c-0.863,0.001-1.628,0.421-2.273,0.961c-0.027,0.022-0.051,0.048-0.077,0.071	c0.013-0.502-0.534-0.941-0.999-0.932c-1.022,0.019-1.886,0.391-2.651,0.935c-0.036-0.509-0.39-1.061-0.975-0.984	c-1.411,0.186-2.549,0.842-3.551,1.71c-0.003-0.12,0.002-0.241-0.007-0.359c-0.075-0.977-0.797-1.873-1.874-1.604	c-0.841,0.21-1.565,1.034-2.158,1.64c0-0.217-0.013-0.432-0.072-0.63c-0.361-1.218-1.732-1.24-2.63-0.626	c-1.648,1.126-2.813,2.895-3.234,4.841c-0.272,1.255,1.656,1.791,1.929,0.531c0.184-0.85,0.508-1.632,1.016-2.342	c0.243-0.34,0.531-0.648,0.839-0.929c0.037-0.033,0.077-0.062,0.114-0.095c-0.007,0.186-0.013,0.372-0.02,0.558	c-0.018,0.519-0.037,1.038-0.055,1.556c-0.038,1.075,1.325,1.248,1.863,0.505c0.449-0.619,0.941-1.204,1.471-1.755	c0.253-0.263,0.513-0.518,0.782-0.765c-0.008,0.141-0.016,0.282-0.025,0.423c-0.033,0.572-0.067,1.145-0.1,1.717	c-0.048,0.829,1.155,1.369,1.707,0.707c0.747-0.896,1.626-1.996,2.706-2.618c-0.082,0.421-0.163,0.841-0.245,1.262	c-0.225,1.162,1.144,1.66,1.828,0.771c0.578-0.752,1.287-1.646,2.169-2.117c-0.042,0.32-0.084,0.639-0.125,0.959	c-0.109,0.83,0.91,1.14,1.505,0.864c0.938-0.437,1.487-1.269,2.285-1.878c0.196-0.15,0.642-0.482,0.926-0.367	c0.082,0.033,0.106,0.083,0.15,0.151c-0.013,0.016-0.017,0.017-0.036,0.042c-0.322,0.434-0.071,1.116,0.359,1.368	c0.509,0.298,1.045,0.076,1.368-0.359C35.812,4.817,34.403,2.968,32.892,2.969z"></path><path fill="#ff9600" d="M43.496,14.587c0.032-2.093-1.558-3.053-3.602-3.503c-1.325-0.353-2.826-0.393-4.213-0.446 c-3-0.116-6.003-0.19-9.006-0.21c-2.264-0.015-4.527,0.015-6.789,0.069c-0.41-0.003-0.82-0.01-1.229-0.012 c-2.517-0.015-5.031,0.03-7.527,0.296c-1.9,0.202-4.571,0.338-5.325,1.955c-0.641,1.376-0.799,3.265-0.038,4.617 c0.768,1.365,2.444,2.167,4.306,2.451c2.087,0.317,4.245,0.169,6.354,0.122c2.744-0.061,5.487-0.123,8.231-0.184 c2.66-0.059,5.321-0.118,7.982-0.179c1.111-0.025,2.239-0.049,3.349-0.153c0.303-0.003,0.606-0.002,0.908-0.01 c1.88-0.051,3.92-0.375,5.209-1.512c0.703-0.62,1.139-1.383,1.215-2.162C43.432,15.341,43.49,14.953,43.496,14.587z"></path><path fill="#ff9600" d="M43.496,39.587c0.032-2.093-1.558-3.053-3.602-3.503c-1.325-0.353-2.826-0.393-4.213-0.446 c-3-0.116-6.003-0.19-9.006-0.21c-2.264-0.015-4.527,0.015-6.789,0.069c-0.41-0.003-0.82-0.01-1.229-0.012 c-2.517-0.015-5.031,0.03-7.527,0.296c-1.9,0.202-4.571,0.338-5.325,1.955c-0.641,1.376-0.799,3.265-0.038,4.617 c0.768,1.365,2.444,2.167,4.306,2.451c2.087,0.317,4.245,0.169,6.354,0.122c2.744-0.061,5.487-0.123,8.231-0.184 c2.66-0.059,5.321-0.118,7.982-0.179c1.111-0.025,2.239-0.049,3.349-0.153c0.303-0.003,0.606-0.002,0.908-0.01 c1.88-0.051,3.92-0.375,5.209-1.512c0.703-0.62,1.139-1.383,1.215-2.162C43.432,40.341,43.49,39.953,43.496,39.587z"></path><path fill="#ff9600" d="M5.258,27.837C5.226,29.93,6.817,30.889,8.86,31.34c1.325,0.353,2.826,0.393,4.213,0.446 c3,0.116,6.003,0.19,9.006,0.21c2.264,0.015,4.527-0.015,6.789-0.069c0.41,0.003,0.82,0.01,1.229,0.012 c2.517,0.015,5.031-0.03,7.527-0.296c1.9-0.202,4.571-0.338,5.325-1.955c0.641-1.376,0.799-3.265,0.038-4.617 c-0.768-1.365-2.444-2.167-4.306-2.451c-2.087-0.317-4.245-0.169-6.354-0.122c-2.744,0.061-5.487,0.123-8.231,0.184 c-2.66,0.059-5.321,0.118-7.982,0.179c-1.111,0.025-2.239,0.049-3.349,0.153c-0.303,0.003-0.606,0.002-0.908,0.01 c-1.88,0.051-3.92,0.375-5.209,1.512c-0.703,0.62-1.139,1.383-1.215,2.162C5.322,27.082,5.264,27.47,5.258,27.837z"></path><path fill="#fff" d="M9.997,28.141c1.494-0.401,2.97-0.445,4.556-0.524c1.677-0.083,3.355-0.145,5.033-0.187 c0.784-0.02,1.537-0.676,1.5-1.5c-0.036-0.796-0.66-1.521-1.5-1.5c-1.744,0.044-3.488,0.108-5.23,0.197 c-1.727,0.088-3.478,0.171-5.156,0.621c-0.782,0.21-1.261,1.068-1.048,1.845C8.368,27.882,9.212,28.352,9.997,28.141L9.997,28.141 z"></path><path fill="#231f20" d="M36.7,42.817c1.127-0.009,2.295-0.194,3.276-0.781c0.87-0.52,1.571-1.346,1.819-2.341 c0.156-0.624-0.808-0.891-0.964-0.266c-0.454,1.819-2.484,2.374-4.131,2.388C36.057,41.822,36.055,42.822,36.7,42.817L36.7,42.817 z"></path><path fill="#231f20" d="M7.474,14.813c0.199-0.855,1.009-1.307,1.801-1.514c1.042-0.272,2.155-0.329,3.221-0.46 c0.268-0.033,0.5-0.206,0.5-0.5c0-0.245-0.23-0.533-0.5-0.5c-0.656,0.081-1.312,0.161-1.968,0.242 c-0.604,0.075-1.216,0.146-1.797,0.334c-1.016,0.329-1.969,1.045-2.222,2.132C6.364,15.173,7.328,15.44,7.474,14.813L7.474,14.813 z"></path><path fill="#ff9600" d="M44.07,34.516c0.26-0.239,0.525-0.472,0.796-0.698c0.136-0.113,0.273-0.224,0.412-0.333 c0.024-0.019,0.142-0.11,0.022-0.018c-0.121,0.093-0.002,0.002,0.022-0.017c0.074-0.057,0.149-0.113,0.224-0.168 c0.568-0.42,1.158-0.809,1.766-1.167c0.451-0.266,0.652-0.913,0.359-1.368c-0.293-0.454-0.886-0.643-1.368-0.359 c-1.307,0.77-2.532,1.686-3.647,2.714c-0.386,0.356-0.387,1.059,0,1.414C43.068,34.895,43.658,34.896,44.07,34.516L44.07,34.516z"></path><path fill="#ff9600" d="M44.885,36.929c0.316,0.05,0.624,0.138,0.918,0.262c-0.08-0.034-0.159-0.067-0.239-0.101 c0.055,0.024,0.109,0.048,0.163,0.074c0.115,0.073,0.239,0.113,0.372,0.119c0.133,0.03,0.266,0.024,0.399-0.018 c0.13-0.031,0.243-0.091,0.34-0.179c0.109-0.071,0.195-0.164,0.258-0.281c0.123-0.232,0.184-0.513,0.101-0.771 c-0.034-0.08-0.067-0.159-0.101-0.239c-0.089-0.15-0.208-0.27-0.359-0.359c-0.421-0.201-0.858-0.364-1.32-0.437 c-0.133-0.042-0.266-0.048-0.399-0.018c-0.133,0.006-0.257,0.046-0.372,0.119c-0.117,0.063-0.21,0.149-0.281,0.258 c-0.088,0.097-0.148,0.21-0.179,0.34c-0.012,0.089-0.024,0.177-0.036,0.266c0.001,0.181,0.046,0.349,0.137,0.505 c0.052,0.067,0.104,0.135,0.156,0.202C44.569,36.796,44.716,36.882,44.885,36.929L44.885,36.929z"></path><path fill="#ff9600" d="M1.322,19.533c0.076,0.18,0.141,0.356,0.254,0.514c0.11,0.155,0.228,0.308,0.363,0.443 c0.182,0.182,0.389,0.335,0.592,0.492c0.476,0.369,0.951,0.737,1.427,1.106c0.091,0.098,0.198,0.166,0.322,0.207 c0.119,0.063,0.248,0.091,0.385,0.086c0.245,0,0.538-0.109,0.707-0.293c0.175-0.191,0.305-0.441,0.293-0.707 c-0.011-0.245-0.089-0.549-0.293-0.707c-0.401-0.311-0.803-0.622-1.204-0.933C3.825,19.475,3.45,19.224,3.18,18.88 c0.052,0.067,0.104,0.135,0.156,0.202c-0.067-0.09-0.125-0.184-0.172-0.286c0.034,0.08,0.067,0.159,0.101,0.239 c-0.005-0.012-0.01-0.023-0.015-0.035c-0.031-0.13-0.091-0.243-0.179-0.34c-0.071-0.109-0.164-0.195-0.281-0.258 c-0.214-0.125-0.53-0.179-0.771-0.101c-0.242,0.078-0.475,0.228-0.598,0.46C1.307,18.982,1.221,19.292,1.322,19.533L1.322,19.533z"></path><path fill="#ff9600" d="M3.406,25.513c0.108-0.117,0.225-0.225,0.351-0.323c-0.067,0.052-0.135,0.104-0.202,0.156 c0.192-0.148,0.402-0.27,0.625-0.365c-0.08,0.034-0.159,0.067-0.239,0.101C4,25.057,4.059,25.034,4.119,25.014 c0.13-0.031,0.243-0.091,0.34-0.179c0.109-0.071,0.195-0.164,0.258-0.281c0.073-0.115,0.113-0.239,0.119-0.372 c0.03-0.133,0.024-0.266-0.018-0.399c-0.078-0.242-0.228-0.475-0.46-0.598c-0.229-0.121-0.517-0.189-0.771-0.101 c-0.299,0.103-0.598,0.233-0.863,0.407c-0.164,0.108-0.32,0.23-0.47,0.356c-0.093,0.078-0.18,0.162-0.262,0.251 c-0.178,0.194-0.293,0.44-0.293,0.707c-0.005,0.138,0.024,0.266,0.086,0.385c0.04,0.124,0.109,0.231,0.207,0.322 c0.191,0.175,0.441,0.305,0.707,0.293C2.958,25.794,3.226,25.709,3.406,25.513L3.406,25.513z"></path>
</svg>